<svg width="219" height="157" viewBox="0 0 219 157" fill="none" xmlns="http://www.w3.org/2000/svg">
<path d="M136.222 104.391C110.009 125.63 76.6795 115.639 66.9852 83.4728C65.4912 77.8381 63.532 72.3366 61.1275 67.0246C58.1706 60.8196 53.2147 55.7818 47.0511 52.7156C40.8875 49.6494 33.8718 48.7317 27.124 50.1089C20.3892 51.4486 14.2285 54.8167 9.47303 59.7589C4.71758 64.701 1.59632 70.9793 0.530425 77.7466C-4.3314 114.383 24.781 149.616 65.1986 156.277C99.7586 161.974 141.992 133.168 145.624 98.84C140.586 99.1322 138.741 102.258 136.222 104.391ZM25.9232 77.7466C25.9232 72.2541 25.5425 63.8985 33.3624 64.6874C41.1823 65.4762 40.3916 73.8317 41.2116 80.1715C40.0108 85.5179 40.2744 93.6981 32.8645 92.997C24.986 92.2666 25.7768 83.7942 25.9232 77.7466ZM38.2828 134.395C33.3038 130.393 27.2998 125.63 33.0695 117.567C55.2406 137.492 55.2406 137.492 95.2775 142.166C74.893 149.003 55.6507 148.243 38.2828 134.395Z" fill="#F0613B"/>
<path d="M135.314 0.910383C96.9762 7.54225 67.6295 45.1131 73.4578 80.1422C74.7246 86.8571 78.0223 93.024 82.9075 97.8135C87.7928 102.603 94.0311 105.785 100.784 106.933C107.275 108.201 114.005 107.282 119.916 104.321C125.827 101.36 130.584 96.5235 133.44 90.5721C136.38 84.4048 138.771 77.9917 140.586 71.4069C142.475 64.7406 146.008 58.6527 150.862 53.6993C155.717 48.7459 161.739 45.085 168.377 43.0511C175.016 41.0171 182.059 40.675 188.865 42.0559C195.67 43.4368 202.02 46.4968 207.334 50.9562C210.526 53.4979 212.284 58.3769 217.555 57.9678C218.112 57.033 219.108 56.1565 218.991 55.4845C212.576 21.4487 171.427 -5.34169 135.314 0.910383ZM106.026 92.4127C98.4406 92.8801 98.7335 84.32 98.4406 79.0321C98.1184 73.0429 98.0599 64.5997 106.026 64.0738C113.993 63.548 111.884 72.4878 114.315 76.5488C112.762 83.2975 113.729 91.916 105.968 92.4127H106.026ZM107.081 40.7016C99.6121 30.7684 107.081 26.094 111.942 21.8577C127.055 8.594 154.469 6.4905 174.502 18.7025C146.444 14.9045 122.662 15.8102 107.022 40.7016H107.081Z" fill="#F0613B"/>
</svg>
