<svg width="411" height="296" viewBox="0 0 411 296" fill="none" xmlns="http://www.w3.org/2000/svg">
<path d="M77.8494 150.857L77.8301 150.943C77.4408 152.681 77.1354 154.571 76.8201 156.524C76.682 157.379 76.542 158.246 76.3921 159.118C75.9035 161.959 75.313 164.826 74.3462 167.344C73.379 169.864 72.0201 172.076 69.9687 173.568C67.9071 175.068 65.2028 175.8 61.6299 175.461M77.8494 150.857L61.6771 174.963M77.8494 150.857L77.8381 150.77C77.5909 148.854 77.423 146.85 77.2522 144.811C77.1579 143.686 77.0627 142.549 76.9527 141.41C76.6455 138.23 76.2247 135.061 75.3827 132.21C74.5401 129.357 73.267 126.791 71.2342 124.842C69.1941 122.885 66.4259 121.585 62.6618 121.204C58.9026 120.824 56.0662 121.542 53.9481 123.055C51.8364 124.563 50.5008 126.819 49.6525 129.399C48.114 134.078 48.1323 139.99 48.1474 144.884C48.1489 145.355 48.1503 145.816 48.1503 146.265M77.8494 150.857L48.6503 146.271M61.6299 175.461L61.6771 174.963M61.6299 175.461C61.6302 175.461 61.6305 175.461 61.6308 175.461L61.6771 174.963M61.6299 175.461C57.8388 175.109 55.0477 173.816 53.0184 171.86C50.9953 169.911 49.768 167.34 49.032 164.494C47.7527 159.547 47.9314 153.642 48.0881 148.464C48.1108 147.714 48.1331 146.98 48.1503 146.265M61.6771 174.963C47.829 173.676 48.2527 159.612 48.5879 148.486L48.588 148.485L48.5881 148.48C48.6108 147.729 48.633 146.991 48.6503 146.271M48.1503 146.265C48.1503 146.267 48.1503 146.269 48.1503 146.271H48.6503M48.1503 146.265C48.1504 146.263 48.1504 146.261 48.1505 146.259L48.6503 146.271M255.965 196.788L255.973 196.781C257.043 195.873 258.036 194.889 259.032 193.902C262.457 190.508 265.927 187.07 272.731 186.497C269.144 218.376 247.823 247.715 219.304 267.817C190.61 288.042 154.711 298.858 122.44 293.525C46.8093 281.029 -7.5885 214.955 1.49033 146.343C3.47573 133.714 9.28649 121.999 18.1388 112.776C26.9926 103.551 38.4628 97.265 51.0017 94.7646L51.0042 94.7641C63.5582 92.1954 76.6108 93.9071 88.078 99.6258C99.5438 105.344 108.763 114.738 114.265 126.309C118.765 136.277 122.432 146.6 125.228 157.172L125.23 157.181L125.233 157.189C134.373 187.59 154.673 207.557 178.911 214.879C203.148 222.202 231.254 216.86 255.965 196.788L255.965 196.788ZM71.5319 253.238L71.5335 253.24C104.296 279.428 140.599 280.844 178.967 267.944L178.866 266.973C141.265 262.572 122.563 260.379 108.046 254.624C93.5535 248.879 83.2215 239.579 62.3965 220.818L61.9803 220.443L61.6549 220.899C58.911 224.743 57.5425 228.228 57.2111 231.425C56.8792 234.628 57.5916 237.502 58.9453 240.114C61.5991 245.235 66.745 249.381 71.347 253.089L71.5319 253.238ZM254.032 2.20543L253.946 1.71278L254.032 2.20542C287.772 -3.65044 323.895 5.96634 353.091 25.045C382.288 44.1238 404.501 72.6258 410.49 104.476C410.52 104.655 410.484 104.888 410.344 105.2C410.205 105.512 409.984 105.859 409.704 106.246C409.535 106.48 409.342 106.731 409.14 106.995C408.757 107.495 408.341 108.037 407.998 108.579C403.389 108.859 400.289 106.881 397.587 104.192C396.475 103.085 395.443 101.872 394.399 100.643C394.14 100.339 393.881 100.034 393.619 99.7293C392.312 98.2076 390.958 96.7077 389.423 95.4814C379.387 87.0401 367.395 81.2477 354.544 78.6335C341.691 76.0188 328.388 76.6666 315.849 80.5178C303.311 84.369 291.937 91.3007 282.768 100.68C273.599 110.059 266.926 121.586 263.359 134.208L263.358 134.211C259.96 146.571 255.483 158.609 249.978 170.185C244.665 181.282 235.817 190.3 224.823 195.822C213.829 201.343 201.312 203.056 189.238 200.691L189.239 200.691L189.226 200.689C176.654 198.548 165.04 192.608 155.945 183.669C146.851 174.73 140.711 163.222 138.352 150.691C127.47 85.1008 182.313 14.6426 254.032 2.20543ZM199.012 174.363L199.012 174.356C202.699 174.099 205.4 172.876 207.401 170.952C209.411 169.019 210.674 166.417 211.552 163.496C212.43 160.576 212.936 157.294 213.403 153.976C213.46 153.575 213.515 153.174 213.571 152.772C213.98 149.837 214.388 146.899 215.024 144.13L215.069 143.934L214.966 143.762C213.875 141.935 213.279 139.53 212.775 136.894C212.646 136.223 212.524 135.536 212.4 134.843C212.044 132.848 211.679 130.799 211.135 128.908C210.399 126.353 209.315 123.995 207.404 122.345C205.479 120.682 202.783 119.795 198.948 120.049C195.117 120.302 192.213 121.515 190.037 123.4C187.866 125.281 186.456 127.8 185.554 130.612C183.756 136.215 183.944 143.091 184.246 148.717L184.246 148.717C184.29 149.512 184.327 150.35 184.365 151.22C184.563 155.739 184.799 161.099 186.256 165.495C187.13 168.13 188.456 170.47 190.519 172.094C192.591 173.724 195.353 174.589 199.012 174.363ZM200.96 77.0755H201.96L201.507 76.4709C216.076 53.4077 234.381 41.4518 255.552 36.125C276.864 30.7629 301.106 32.111 327.423 35.6821L327.751 34.76C289.988 11.6829 238.299 15.6334 209.755 40.7463C208.953 41.4468 208.104 42.1611 207.236 42.8917C205.665 44.2132 204.031 45.5883 202.496 47.0325C200.1 49.2858 197.885 51.761 196.401 54.5981C194.912 57.4452 194.163 60.6509 194.695 64.3439C195.211 67.9348 196.932 71.9503 200.295 76.5192L199.947 77.0755H200.85H200.96Z" stroke="white" stroke-opacity="0.2"/>
</svg>
